<svg xmlns="http://www.w3.org/2000/svg" xmlns:xlink="http://www.w3.org/1999/xlink" width="77" zoomAndPan="magnify" viewBox="0 0 57.75 58.499998" height="78" preserveAspectRatio="xMidYMid meet" version="1.0"><defs><clipPath id="a56b0e4892"><path d="M 11 12.03125 L 44.820312 12.03125 L 44.820312 46.238281 L 11 46.238281 Z M 11 12.03125 " clip-rule="nonzero"/></clipPath></defs><g clip-path="url(#a56b0e4892)"><path fill="#ff914d" d="M 11.195312 13.335938 L 20.871094 32.792969 C 23.71875 30.246094 26.222656 25.777344 26.085938 22.113281 L 23.15625 16.34375 C 23.050781 16.136719 22.875 15.976562 22.65625 15.894531 L 12.347656 12.058594 C 11.5625 11.769531 10.824219 12.585938 11.195312 13.335938 Z M 28.554688 23.96875 C 28.582031 23.933594 28.605469 23.894531 28.625 23.851562 L 32.296875 16.410156 C 32.402344 16.199219 32.582031 16.035156 32.804688 15.953125 L 43.304688 12.046875 C 44.082031 11.757812 44.820312 12.566406 44.457031 13.316406 L 28.871094 45.542969 C 28.539062 46.234375 27.554688 46.238281 27.210938 45.550781 L 21.199219 33.460938 C 24.496094 31.101562 27.078125 27.808594 28.554688 23.96875 " fill-opacity="1" fill-rule="nonzero"/></g></svg>