<svg xmlns="http://www.w3.org/2000/svg" xmlns:xlink="http://www.w3.org/1999/xlink" width="250" zoomAndPan="magnify" viewBox="0 0 187.5 60" height="80" preserveAspectRatio="xMidYMid meet" version="1.0"><defs><clipPath id="db7ed35b3e"><path d="M 57.351562 1.65625 L 113.449219 1.65625 L 113.449219 58.503906 L 57.351562 58.503906 Z M 57.351562 1.65625 " clip-rule="nonzero"/></clipPath></defs><g clip-path="url(#db7ed35b3e)"><path fill="#ff914d" d="M 57.878906 4.117188 L 73.867188 36.277344 C 78.574219 32.066406 82.71875 24.679688 82.488281 18.625 L 77.648438 9.085938 C 77.476562 8.742188 77.179688 8.476562 76.820312 8.34375 L 59.777344 2.003906 C 58.480469 1.523438 57.261719 2.878906 57.878906 4.117188 Z M 86.570312 21.691406 C 86.613281 21.632812 86.652344 21.566406 86.683594 21.5 L 92.753906 9.195312 C 92.925781 8.847656 93.226562 8.574219 93.589844 8.441406 L 110.945312 1.984375 C 112.234375 1.503906 113.453125 2.84375 112.855469 4.082031 L 87.09375 57.34375 C 86.539062 58.488281 84.914062 58.496094 84.351562 57.359375 L 74.414062 37.375 C 79.863281 33.480469 84.128906 28.039062 86.570312 21.691406 " fill-opacity="1" fill-rule="nonzero"/></g></svg>